<svg
    xmlns="http://www.w3.org/2000/svg"
    viewBox="0 0 288 288"
    id="vector">
    <path
        id="path"
        d="M 144 144 M 48 144 C 48 118.549 58.121 94.114 76.118 76.118 C 94.114 58.121 118.549 48 144 48 C 169.451 48 193.886 58.121 211.882 76.118 C 229.879 94.114 240 118.549 240 144 C 240 169.451 229.879 193.886 211.882 211.882 C 193.886 229.879 169.451 240 144 240 C 118.549 240 94.114 229.879 76.118 211.882 C 58.121 193.886 48 169.451 48 144"
        fill="#00000000"
        stroke="#ff0000"
        stroke-opacity="0.1"
        stroke-width="1"/>
    <path
        id="path_1"
        d="M 144 144 M 54 144 C 54 120.14 63.489 97.232 80.36 80.36 C 97.232 63.489 120.14 54 144 54 C 167.86 54 190.768 63.489 207.64 80.36 C 224.511 97.232 234 120.14 234 144 C 234 167.86 224.511 190.768 207.64 207.64 C 190.768 224.511 167.86 234 144 234 C 120.14 234 97.232 224.511 80.36 207.64 C 63.489 190.768 54 167.86 54 144"
        fill="#6366f1"/>
    <path
        id="path_2"
        d="M 124 144 L 144 164 L 184 124"
        fill="#00000000"
        stroke="#ffffff"
        stroke-width="16"
        stroke-linecap="round"
        stroke-linejoin="round"/>
    <path
        id="path_3"
        d="M 144 144 M 94 144 C 94 130.744 99.271 118.018 108.645 108.645 C 118.018 99.271 130.744 94 144 94 C 157.256 94 169.982 99.271 179.355 108.645 C 188.729 118.018 194 130.744 194 144 C 194 157.256 188.729 169.982 179.355 179.355 C 169.982 188.729 157.256 194 144 194 C 130.744 194 118.018 188.729 108.645 179.355 C 99.271 169.982 94 157.256 94 144"
        fill="#00000000"
        stroke="#ffffff"
        stroke-opacity="0.3"
        stroke-width="8"/>
</svg>
